<svg xmlns="http://www.w3.org/2000/svg" xmlns:xlink="http://www.w3.org/1999/xlink" viewBox="0 0 1024 740.17"><defs><style>.cls-1{fill:#d3d3d3;}.cls-2{fill:url(#linear-gradient);}.cls-3{fill:#ed2985;}</style><linearGradient id="linear-gradient" x1="329.43" y1="350.4" x2="693.35" y2="350.4" gradientUnits="userSpaceOnUse"><stop offset="0" stop-color="#0ad2ff"/><stop offset="1" stop-color="#3cfa50"/></linearGradient></defs><title>cavnas_logo_light</title><g id="Layer_3" data-name="Layer 3"><path class="cls-1" d="M40.56,357.17,238.18,237.75a24.66,24.66,0,0,1,37.41,21.1V285.7A24.66,24.66,0,0,1,264,306.64l-86.86,53.95a24.66,24.66,0,0,0,.34,42.1l86.18,51.63a24.68,24.68,0,0,1,12,21.15V506a24.65,24.65,0,0,1-37.22,21.21L40.74,410.15a24.68,24.68,0,0,1-12.09-21.22V378.27A24.65,24.65,0,0,1,40.56,357.17Z"/><path class="cls-2" d="M329.43,346.89a212.1,212.1,0,0,1,54.13-141.61q26.63-29.85,64.66-47.7t86-17.84q57.35,0,99.19,25.16,30.26,18.19,49,44.36c7.94,11.05,5,26.53-6.19,34.3L655.4,258.09a24.62,24.62,0,0,1-33.82-5.85,86,86,0,0,0-15.36-16A108.57,108.57,0,0,0,569.64,217a131.83,131.83,0,0,0-37.74-5.85q-30.43,0-53,12.29a115,115,0,0,0-37.45,32.18A144.92,144.92,0,0,0,419,300.07a167.44,167.44,0,0,0-7.61,49.74,159.63,159.63,0,0,0,8.78,52.38A144.37,144.37,0,0,0,445,447.24a119,119,0,0,0,38.62,31,107.81,107.81,0,0,0,49.45,11.41,125,125,0,0,0,38.62-6.44,111.14,111.14,0,0,0,36.87-20.48,93.91,93.91,0,0,0,16.24-17.44,24.68,24.68,0,0,1,32.54-6.88l23.84,14a24.67,24.67,0,0,1,7.84,35.2,132.86,132.86,0,0,1-28.09,29.5,200.9,200.9,0,0,1-62,32.77,219.43,219.43,0,0,1-68.17,11.12q-44.48,0-81.05-18.43a208.24,208.24,0,0,1-63.49-49.16,231.11,231.11,0,0,1-41.84-69.05A212,212,0,0,1,329.43,346.89Z"/><path class="cls-1" d="M983.26,410.15,785.63,527.22A24.65,24.65,0,0,1,748.41,506V475.5a24.64,24.64,0,0,1,12-21.17l104-62a12.33,12.33,0,0,0,.17-21.08l-104.47-64.6a24.67,24.67,0,0,1-11.68-21V258.85a24.66,24.66,0,0,1,37.41-21.1L983.44,357.17a24.65,24.65,0,0,1,11.91,21.1v10.66A24.68,24.68,0,0,1,983.26,410.15Z"/><path class="cls-3" d="M584.35,73a24.65,24.65,0,0,1,23.17-16.22h25.6a24.66,24.66,0,0,1,23.17,33.09l-26.55,73q-31-17.52-70.19-21.7ZM534,211.17,374.19,650.35a24.66,24.66,0,0,0,23.17,33.09H423a24.65,24.65,0,0,0,23.17-16.22L603.68,234.37a107.74,107.74,0,0,0-34-17.39A133.34,133.34,0,0,0,534,211.17Z"/></g></svg>