<svg xmlns="http://www.w3.org/2000/svg" xmlns:xlink="http://www.w3.org/1999/xlink" viewBox="0 0 1024 1024"><defs><style>.cls-1{fill:#1d184b;}.cls-2{fill:url(#linear-gradient);}.cls-3{fill:#ed2985;}</style><linearGradient id="linear-gradient" x1="121.98" y1="119.1" x2="269.57" y2="119.1" gradientUnits="userSpaceOnUse"><stop offset="0" stop-color="#0ad2ff"/><stop offset="1" stop-color="#3cfa50"/></linearGradient><symbol id="Logo" data-name="Logo" viewBox="0 0 392.05 254.17"><path class="cls-1" d="M4.83,121.85,85,73.42A10,10,0,0,1,100.15,82V92.86a10,10,0,0,1-4.72,8.5L60.2,123.23a10,10,0,0,0,.14,17.08l35,20.94a10,10,0,0,1,4.86,8.57v12.39a10,10,0,0,1-15.1,8.6L4.9,143.33a10,10,0,0,1-4.9-8.6V130.4A10,10,0,0,1,4.83,121.85Z"/><path class="cls-2" d="M122,117.68a85.93,85.93,0,0,1,5.58-30.5,85,85,0,0,1,16.37-26.93A80.55,80.55,0,0,1,170.16,40.9q15.42-7.23,34.88-7.23,23.27,0,40.23,10.2a65.91,65.91,0,0,1,19.89,18,9.94,9.94,0,0,1-2.51,13.91l-8.47,5.89a10,10,0,0,1-13.72-2.37,34.54,34.54,0,0,0-6.23-6.47A44.29,44.29,0,0,0,219.4,65a53.51,53.51,0,0,0-15.31-2.37q-12.33,0-21.47,5a46.58,46.58,0,0,0-15.19,13.05,58.91,58.91,0,0,0-9.14,18,67.78,67.78,0,0,0-3.08,20.17,64.51,64.51,0,0,0,3.56,21.24,58.52,58.52,0,0,0,10.08,18.28A48.12,48.12,0,0,0,184.52,171a43.63,43.63,0,0,0,20,4.63A50.47,50.47,0,0,0,220.23,173a45.2,45.2,0,0,0,15-8.3,38.4,38.4,0,0,0,6.59-7.08A10,10,0,0,1,255,154.8l9.67,5.7a10,10,0,0,1,3.17,14.27,53.87,53.87,0,0,1-11.39,12A81.76,81.76,0,0,1,231.27,200a89.33,89.33,0,0,1-27.65,4.51,72,72,0,0,1-32.87-7.48A84.48,84.48,0,0,1,145,177.13a93.86,93.86,0,0,1-17-28A86.1,86.1,0,0,1,122,117.68Z"/><path class="cls-1" d="M387.15,143.33,307,190.81a10,10,0,0,1-15.1-8.6V169.84a10,10,0,0,1,4.88-8.59l42.16-25.15a5,5,0,0,0,.07-8.55l-42.37-26.2a10,10,0,0,1-4.74-8.5V82a10,10,0,0,1,15.17-8.55l80.15,48.43a10,10,0,0,1,4.83,8.55v4.33A10,10,0,0,1,387.15,143.33Z"/><path class="cls-3" d="M225.36,6.58A10,10,0,0,1,234.76,0h10.38a10,10,0,0,1,9.4,13.42L243.77,43a72.74,72.74,0,0,0-28.46-8.81ZM205,62.64,140.13,240.75a10,10,0,0,0,9.4,13.42h10.38a10,10,0,0,0,9.4-6.58L233.2,72A43.83,43.83,0,0,0,219.4,65,53.63,53.63,0,0,0,205,62.64Z"/></symbol></defs><title>project_canvas_logo</title><g id="Layer_7" data-name="Layer 7"><use width="392.05" height="254.17" transform="translate(64.6 31.09) scale(2.29)" xlink:href="#Logo"/><path class="cls-1" d="M320,706.64a30.74,30.74,0,0,1,14.4-3.31,32.16,32.16,0,0,1,16.76,4.52,31.82,31.82,0,0,1,11.91,12.68,39.31,39.31,0,0,1,4.33,18.73,40.49,40.49,0,0,1-4.33,18.93,32.41,32.41,0,0,1-11.91,13,31.36,31.36,0,0,1-16.76,4.65,30.41,30.41,0,0,1-14.27-3.25,34.32,34.32,0,0,1-6.71-4.5,2.11,2.11,0,0,0-3.49,1.6V806a2.12,2.12,0,0,1-2.12,2.12H297.54a2.12,2.12,0,0,1-2.12-2.12V706.6a2.12,2.12,0,0,1,2.12-2.12h10.28a2.12,2.12,0,0,1,2.12,2.12v2.85A2.12,2.12,0,0,0,313.5,711,33.32,33.32,0,0,1,320,706.64Zm29.63,20.07a20.62,20.62,0,0,0-7.9-8,21.31,21.31,0,0,0-10.52-2.74,20.6,20.6,0,0,0-10.38,2.81,20.81,20.81,0,0,0-7.9,8.15,25.42,25.42,0,0,0-3,12.62,25.76,25.76,0,0,0,3,12.68,20.7,20.7,0,0,0,18.28,11,20.53,20.53,0,0,0,10.52-2.87,21.15,21.15,0,0,0,7.9-8.34,26.28,26.28,0,0,0,3-12.75A25.14,25.14,0,0,0,349.64,726.71Z"/><path class="cls-1" d="M404.81,706.32A23.86,23.86,0,0,1,415,703.41a2.15,2.15,0,0,1,2.33,2.12v10.71a2.14,2.14,0,0,1-2.13,2.13h-1.57q-8.54,0-12.93,4.33t-4.4,15v34.83a2.13,2.13,0,0,1-2.13,2.13H383.94a2.13,2.13,0,0,1-2.13-2.13v-66a2.12,2.12,0,0,1,2.13-2.12h10.27a2.12,2.12,0,0,1,2.13,2.12v1.91a2.11,2.11,0,0,0,3.6,1.5A23.31,23.31,0,0,1,404.81,706.32Z"/><path class="cls-1" d="M443.23,771.31a32.48,32.48,0,0,1-12.62-12.74A38.53,38.53,0,0,1,426,739.52a37.73,37.73,0,0,1,4.71-19,32.51,32.51,0,0,1,12.87-12.74,39.47,39.47,0,0,1,36.45,0,32.64,32.64,0,0,1,12.87,12.74,37.73,37.73,0,0,1,4.71,19,36.88,36.88,0,0,1-4.84,19,33.49,33.49,0,0,1-13.19,12.81,37.94,37.94,0,0,1-18.41,4.52A35.91,35.91,0,0,1,443.23,771.31Zm28.48-10.77a20.29,20.29,0,0,0,8-8,25.77,25.77,0,0,0,3.06-13,26.42,26.42,0,0,0-2.93-12.94,19.74,19.74,0,0,0-7.77-8,21.2,21.2,0,0,0-10.45-2.68,20.87,20.87,0,0,0-10.39,2.68,19.14,19.14,0,0,0-7.58,8,27.35,27.35,0,0,0-2.8,12.94q0,11.34,5.8,17.52a19.15,19.15,0,0,0,14.59,6.18A21.56,21.56,0,0,0,471.71,760.54Z"/><path class="cls-1" d="M526.57,788.45q0,10.32-5.16,15t-15,4.65H501a2.13,2.13,0,0,1-2.13-2.12v-8a2.13,2.13,0,0,1,2.13-2.12h2.84q4.47,0,6.31-1.72t1.85-5.67V706.6a2.12,2.12,0,0,1,2.12-2.12h10.28a2.12,2.12,0,0,1,2.13,2.12Zm-13.77-96a9.3,9.3,0,0,1,6.63-15.93,8.85,8.85,0,0,1,6.5,2.67,9.54,9.54,0,0,1,0,13.26,8.85,8.85,0,0,1-6.5,2.67A9,9,0,0,1,512.8,692.5Z"/><path class="cls-1" d="M607.65,745H558.29a2.14,2.14,0,0,0-2.1,2.52,18.83,18.83,0,0,0,5.93,11,19.68,19.68,0,0,0,13.76,5.1q11,0,16-8.69a2.15,2.15,0,0,1,1.86-1.12H605a2.14,2.14,0,0,1,2,3,31.65,31.65,0,0,1-10.38,12.86q-8.36,6.18-20.71,6.18a35.81,35.81,0,0,1-18-4.52,32.17,32.17,0,0,1-12.49-12.74,38.83,38.83,0,0,1-4.52-19.05,39.8,39.8,0,0,1,4.39-19,30.89,30.89,0,0,1,12.36-12.68,36.84,36.84,0,0,1,18.29-4.46,35.72,35.72,0,0,1,17.71,4.33,30.69,30.69,0,0,1,12.11,12.17,36.71,36.71,0,0,1,4.33,18,49.6,49.6,0,0,1-.26,5.21A2.14,2.14,0,0,1,607.65,745Zm-15.08-11.73a2.14,2.14,0,0,0,2.12-2.42,16.06,16.06,0,0,0-5.56-10.45,20.5,20.5,0,0,0-13.89-4.84,18.65,18.65,0,0,0-12.87,4.78,19.18,19.18,0,0,0-5.91,10.32,2.14,2.14,0,0,0,2.08,2.61Z"/><path class="cls-1" d="M623.86,720.47A31.24,31.24,0,0,1,636,707.79a35.27,35.27,0,0,1,17.85-4.46q12.74,0,21.08,6a29,29,0,0,1,10.42,14.41,2.15,2.15,0,0,1-2,2.86H672a2.17,2.17,0,0,1-2-1.33,16.25,16.25,0,0,0-5.58-6.83,18.08,18.08,0,0,0-10.57-2.93q-8.93,0-14.21,6.31t-5.29,17.65q0,11.34,5.29,17.71t14.21,6.37q11.83,0,16.15-9.76a2.17,2.17,0,0,1,2-1.33h11.3a2.15,2.15,0,0,1,2,2.9,30.91,30.91,0,0,1-10.52,14.12q-8.4,6.3-20.89,6.3A34.8,34.8,0,0,1,636,771.31a31.64,31.64,0,0,1-12.16-12.74,43.44,43.44,0,0,1,0-38.1Z"/><path class="cls-1" d="M719.83,716.32a2.13,2.13,0,0,0-2.12,2.13v36.74q0,4,1.84,5.67c1.23,1.15,3.34,1.72,6.31,1.72h6.8a2.12,2.12,0,0,1,2.12,2.13v7.85a2.12,2.12,0,0,1-2.12,2.13h-9.35q-9.81,0-15-4.59t-5.23-14.91V718.45a2.13,2.13,0,0,0-2.12-2.13h-4a2.12,2.12,0,0,1-2.12-2.12v-7.6a2.12,2.12,0,0,1,2.12-2.12h4a2.13,2.13,0,0,0,2.12-2.13V689.14a2.12,2.12,0,0,1,2.12-2.12h10.41a2.13,2.13,0,0,1,2.13,2.12v13.21a2.13,2.13,0,0,0,2.12,2.13h12.83a2.12,2.12,0,0,1,2.12,2.12v7.6a2.12,2.12,0,0,1-2.12,2.12Z"/><path class="cls-1" d="M74.19,865.46a79.71,79.71,0,0,1,30.39-29.8A84.85,84.85,0,0,1,146.63,825q26.15,0,46.52,12.83A72.08,72.08,0,0,1,220,867.85a4.44,4.44,0,0,1-4,6.33H193.14a4.52,4.52,0,0,1-3.94-2.39,42.47,42.47,0,0,0-16.42-16.93q-11.31-6.36-26.15-6.36a57.24,57.24,0,0,0-29,7.3,50.83,50.83,0,0,0-19.9,21q-7.19,13.66-7.19,31.8t7.19,31.81a51.6,51.6,0,0,0,19.9,21.08,56.41,56.41,0,0,0,29,7.42q14.84,0,26.15-6.36A42.5,42.5,0,0,0,189.2,945.6a4.5,4.5,0,0,1,3.94-2.4h22.77a4.44,4.44,0,0,1,4,6.33,71.28,71.28,0,0,1-26.8,30q-20.37,12.72-46.52,12.72a84.58,84.58,0,0,1-42.17-10.72,79.89,79.89,0,0,1-30.27-29.8Q63,932.6,63,908.57T74.19,865.46Z"/><path class="cls-1" d="M253.22,890.67a59.22,59.22,0,0,1,53.13-31.8q15.3,0,26.73,6a60.11,60.11,0,0,1,10.9,7.27,4.45,4.45,0,0,0,7.36-3.36v-3.34a4.45,4.45,0,0,1,4.45-4.45H374a4.45,4.45,0,0,1,4.45,4.45V986.33a4.46,4.46,0,0,1-4.45,4.46H355.79a4.46,4.46,0,0,1-4.45-4.46v-3.68A4.45,4.45,0,0,0,344,979.3a59.55,59.55,0,0,1-11.24,7.48,60.2,60.2,0,0,1-57.48-2.47,60.94,60.94,0,0,1-22-24q-8.11-15.42-8.12-35T253.22,890.67Zm92.58,11.78a38.91,38.91,0,0,0-14.48-15.08A38,38,0,0,0,312,882.19a38.66,38.66,0,0,0-19.32,5.06,38.21,38.21,0,0,0-14.49,14.85q-5.54,9.76-5.53,23.2t5.53,23.56a39.1,39.1,0,0,0,14.61,15.43,37.46,37.46,0,0,0,19.2,5.3,37.88,37.88,0,0,0,19.32-5.19,38.61,38.61,0,0,0,14.48-15.19q5.54-10,5.54-23.44T345.8,902.45Z"/><path class="cls-1" d="M506.7,865.23a45.31,45.31,0,0,1,19,18.84q6.83,12.49,6.83,30.16v72.1a4.46,4.46,0,0,1-4.45,4.46H510.33a4.46,4.46,0,0,1-4.46-4.46v-68.1q0-17.43-8.71-26.74t-23.8-9.3q-15.08,0-23.91,9.3t-8.83,26.74v68.1a4.46,4.46,0,0,1-4.45,4.46H418.22a4.46,4.46,0,0,1-4.46-4.46V865.44a4.46,4.46,0,0,1,4.46-4.45h17.95a4.45,4.45,0,0,1,4.45,4.45h0a4.46,4.46,0,0,0,7.21,3.49,47.32,47.32,0,0,1,9.63-5.59,54,54,0,0,1,21.79-4.47A58.23,58.23,0,0,1,506.7,865.23Z"/><path class="cls-1" d="M621,954.65,652.54,864a4.45,4.45,0,0,1,4.2-3h18.87a4.46,4.46,0,0,1,4.17,6L633.7,987.92a4.45,4.45,0,0,1-4.16,2.87h-25.9a4.46,4.46,0,0,1-4.16-2.88L553.62,867a4.46,4.46,0,0,1,4.17-6h19.12a4.45,4.45,0,0,1,4.2,3l31.51,90.67A4.45,4.45,0,0,0,621,954.65Z"/><path class="cls-1" d="M701.51,890.67a59.19,59.19,0,0,1,53.12-31.8q15.32,0,26.74,6a60.46,60.46,0,0,1,10.9,7.27,4.45,4.45,0,0,0,7.36-3.36v-3.34a4.45,4.45,0,0,1,4.45-4.45h18.18a4.46,4.46,0,0,1,4.46,4.45V986.33a4.46,4.46,0,0,1-4.46,4.46H804.08a4.46,4.46,0,0,1-4.45-4.46v-3.68a4.45,4.45,0,0,0-7.37-3.35A59.87,59.87,0,0,1,781,986.78a60.2,60.2,0,0,1-57.48-2.47,60.94,60.94,0,0,1-22-24q-8.13-15.42-8.13-35T701.51,890.67Zm92.58,11.78a38.86,38.86,0,0,0-14.49-15.08,37.94,37.94,0,0,0-19.32-5.18A38.6,38.6,0,0,0,741,887.25a38.21,38.21,0,0,0-14.49,14.85q-5.54,9.76-5.53,23.2t5.53,23.56a39.1,39.1,0,0,0,14.61,15.43,37.45,37.45,0,0,0,19.19,5.3,37.85,37.85,0,0,0,19.32-5.19,38.57,38.57,0,0,0,14.49-15.19q5.53-10,5.54-23.44T794.09,902.45Z"/><path class="cls-1" d="M881.72,987.37a48.1,48.1,0,0,1-19.2-15.08,37.65,37.65,0,0,1-7-16.25,4.41,4.41,0,0,1,4.41-5.06h19.14a4.56,4.56,0,0,1,4.34,3.46,19.47,19.47,0,0,0,7.27,10.32q7.19,5.54,18,5.53,11.31,0,17.56-4.35t6.24-11.2c0-4.86-2.32-8.48-7-10.83s-12-4.95-22-7.77a211.07,211.07,0,0,1-23.79-7.78,41.69,41.69,0,0,1-15.9-11.54q-6.72-7.79-6.72-20.5a32,32,0,0,1,6.13-19q6.12-8.6,17.55-13.54t26.27-5q22.14,0,35.69,11.19,11.73,9.69,14,25.5a4.43,4.43,0,0,1-4.43,5H934.17a4.52,4.52,0,0,1-4.36-3.57,18.68,18.68,0,0,0-6.51-10.33q-6.36-5.17-17.2-5.18-10.59,0-16.25,4-7.44,5.26-5.09,15a4.46,4.46,0,0,0,.83,1.71,25.6,25.6,0,0,0,11.56,8.13q5.42,2,16,5.06a175.9,175.9,0,0,1,23.21,7.66A43.2,43.2,0,0,1,952,934.49q6.6,7.53,6.83,20a33.61,33.61,0,0,1-6.12,19.79A40.68,40.68,0,0,1,935.43,988q-11.19,4.95-26.26,4.95A65.43,65.43,0,0,1,881.72,987.37Z"/></g></svg>