<svg id="Layer_1" data-name="Layer 1" xmlns="http://www.w3.org/2000/svg" xmlns:xlink="http://www.w3.org/1999/xlink" viewBox="0 0 1024 740.17"><defs><style>.cls-1{fill:#1d184b;}.cls-2{fill:url(#linear-gradient);}.cls-3{fill:#ed2985;}</style><linearGradient id="linear-gradient" x1="121.98" y1="119.1" x2="269.57" y2="119.1" gradientUnits="userSpaceOnUse"><stop offset="0" stop-color="#0ad2ff"/><stop offset="1" stop-color="#3cfa50"/></linearGradient><symbol id="Logo" data-name="Logo" viewBox="0 0 392.05 254.17"><path class="cls-1" d="M4.83,121.85,85,73.42A10,10,0,0,1,100.15,82V92.86a10,10,0,0,1-4.72,8.5L60.2,123.23a10,10,0,0,0,.14,17.08l35,20.94a10,10,0,0,1,4.86,8.57v12.39a10,10,0,0,1-15.1,8.6L4.9,143.33a10,10,0,0,1-4.9-8.6V130.4A10,10,0,0,1,4.83,121.85Z"/><path class="cls-2" d="M122,117.68a85.93,85.93,0,0,1,5.58-30.5,85,85,0,0,1,16.37-26.93A80.55,80.55,0,0,1,170.16,40.9q15.42-7.23,34.88-7.23,23.27,0,40.23,10.2a65.91,65.91,0,0,1,19.89,18,9.94,9.94,0,0,1-2.51,13.91l-8.47,5.89a10,10,0,0,1-13.72-2.37,34.54,34.54,0,0,0-6.23-6.47A44.29,44.29,0,0,0,219.4,65a53.51,53.51,0,0,0-15.31-2.37q-12.33,0-21.47,5a46.58,46.58,0,0,0-15.19,13.05,58.91,58.91,0,0,0-9.14,18,67.78,67.78,0,0,0-3.08,20.17,64.51,64.51,0,0,0,3.56,21.24,58.52,58.52,0,0,0,10.08,18.28A48.12,48.12,0,0,0,184.52,171a43.63,43.63,0,0,0,20,4.63A50.47,50.47,0,0,0,220.23,173a45.2,45.2,0,0,0,15-8.3,38.4,38.4,0,0,0,6.59-7.08A10,10,0,0,1,255,154.8l9.67,5.7a10,10,0,0,1,3.17,14.27,53.87,53.87,0,0,1-11.39,12A81.76,81.76,0,0,1,231.27,200a89.33,89.33,0,0,1-27.65,4.51,72,72,0,0,1-32.87-7.48A84.48,84.48,0,0,1,145,177.13a93.86,93.86,0,0,1-17-28A86.1,86.1,0,0,1,122,117.68Z"/><path class="cls-1" d="M387.15,143.33,307,190.81a10,10,0,0,1-15.1-8.6V169.84a10,10,0,0,1,4.88-8.59l42.16-25.15a5,5,0,0,0,.07-8.55l-42.37-26.2a10,10,0,0,1-4.74-8.5V82a10,10,0,0,1,15.17-8.55l80.15,48.43a10,10,0,0,1,4.83,8.55v4.33A10,10,0,0,1,387.15,143.33Z"/><path class="cls-3" d="M225.36,6.58A10,10,0,0,1,234.76,0h10.38a10,10,0,0,1,9.4,13.42L243.77,43a72.74,72.74,0,0,0-28.46-8.81ZM205,62.64,140.13,240.75a10,10,0,0,0,9.4,13.42h10.38a10,10,0,0,0,9.4-6.58L233.2,72A43.83,43.83,0,0,0,219.4,65,53.63,53.63,0,0,0,205,62.64Z"/></symbol></defs><title>cavnas_logo</title><use width="392.05" height="254.17" transform="translate(28.65 56.73) scale(2.47)" xlink:href="#Logo"/></svg>